<svg id="ѓЊѓCѓ_Ѓ__1" data-name="ѓЊѓCѓ„Ѓ[_1" xmlns="http://www.w3.org/2000/svg" viewBox="0 0 294.83 139.23"><defs><style>.cls-1{fill:#fcc7e0;}.cls-2{fill:#f592bd;}</style></defs><path class="cls-1" d="M33.12,49.46c2.52-.13,7-1.74,9.62-2a22,22,0,0,0,8.53-3.26,9.92,9.92,0,0,1,9.5-.46C64,45.44,67,50.56,64.48,54.94S56.93,61,52.91,61s-5,1-10.67-1.37a23.71,23.71,0,0,1-10.05-8C30.81,49.83,32,49.82,33.12,49.46Z"/><path class="cls-1" d="M250.09,103.13c-3.69-4.48-14-4.34-19.16-2.16s-6.71,3.56-10.47,1.52-8.29,4.09-2.56,10.73,14,3.68,19.95.58A31.35,31.35,0,0,0,250.09,103.13Z"/><path class="cls-1" d="M92,87.82c-5.51,1.12-8.56-3.49-14.49-1.41s-9.83,6.25-9.82,12.47,6.77-.37,9.66-1.71S90.54,95.89,92,87.82Z"/><path class="cls-1" d="M13.07,18.3c2.6-5,15.31-13.41,18.84-7,.82,1.48,4.81,4.23,7.76,3.12s.72,1.17-2.92,2.31-6.89,4.61-13.23,3.82S15.48,18.24,13.07,18.3Z"/><path class="cls-1" d="M142.53,105.94c.56,2.54,0,10.07-6.35,10.66s-8.08-3.33-10.18-5.55c0,0,5.28.3,7.6-1.69S139.86,104,142.53,105.94Z"/><path class="cls-1" d="M0,9.17c0-1.48-.34-5.19,6-8s7.92.36,8.11,3.25a17.71,17.71,0,0,1-3.23,3.51C9.19,9.22,5.14,10.72,0,9.17Z"/><path class="cls-1" d="M272.05,100.82c1.54-1.65,5.24-6,15.23-2.18s8.17,9,5.25,12.28a27.41,27.41,0,0,1-7.29.32C281.91,110.8,275.91,108,272.05,100.82Z"/><path class="cls-1" d="M250.38,57.05c2.44-2.91,8.54-9.23,17.17-6.2s5.32,9.42,1.55,12.38-5.67,8.42-8.77,8.33S254.1,70,252.7,65.21,252.23,59.86,250.38,57.05Z"/><path class="cls-1" d="M89.86,54c.23,2.82-2.42,12.21-7.88,12.23s-12.42.22-14.66,2.41-5,5.08-4.47.54,4.09-10.9,10.55-12.32S86.07,59.2,89.86,54Z"/><path class="cls-2" d="M76,62.85A17.33,17.33,0,0,0,68.35,68c2.9-1.51,8.83-1.67,13.63-1.69a5.79,5.79,0,0,0,4.41-2.42C84.07,63.05,79.28,61.69,76,62.85Z"/><path class="cls-1" d="M142.08,66.77c3.82-3.54,13.38-10.63,19.47-7.35a45.64,45.64,0,0,1,9.66,6.8s-7.19,9-16.85,7.85C147.93,73.28,149.33,70.43,142.08,66.77Z"/><path class="cls-2" d="M150.69,70.43a10.64,10.64,0,0,0-5-3.22,6.62,6.62,0,0,0-3.33-.28c6.87,3.57,5.65,6.33,11.9,7.13A11.08,11.08,0,0,1,150.69,70.43Z"/><path class="cls-1" d="M207.85,123.57a19.12,19.12,0,0,0-15.32,4.68c-5,4.52-2.07,8.21-5.86,10.79,0,0,10.07,1.38,15-3.27S204.41,126.3,207.85,123.57Z"/><path class="cls-2" d="M201.64,135.77a11.44,11.44,0,0,0,2.33-3,22.47,22.47,0,0,1-9.65,4.87c-1.61.32-4.22,1-6.32,1.56C190.9,139.35,197.83,139.38,201.64,135.77Z"/><path class="cls-1" d="M124,88.19c1.24,2.71,1.77,7.11-.76,9.81s-4.86,4.7-7.08,5.26-5.31-.85-6.7-1.54,2.38-4.46,3.64-5.81,4.42-2.71,6.31-4.59A18,18,0,0,1,124,88.19Z"/><path class="cls-2" d="M123.24,98A7,7,0,0,0,125,93.66c-1.35,1.71-3.2,2.33-4.76,3.67s-2,3.31-2.31,5.2A23.73,23.73,0,0,0,123.24,98Z"/><path class="cls-1" d="M215.4,60c-3.82-1.67-14-3.57-18.3-2.32S183,60.67,182.19,74c0,0,9.7,1.92,16.29-.38S209.67,66.37,215.4,60Z"/></svg>